<?xml version="1.0" encoding="us-ascii" standalone="no"?><svg xmlns="http://www.w3.org/2000/svg" xmlns:xlink="http://www.w3.org/1999/xlink" contentStyleType="text/css" height="562px" preserveAspectRatio="none" style="width:1005px;height:562px;background:#FFFFFF;" version="1.1" viewBox="0 0 1005 562" width="1005px" zoomAndPan="magnify"><defs/><g><rect fill="none" height="138.2422" style="stroke:#000000;stroke-width:1.5;" width="684" x="314.5" y="264.3672"/><line style="stroke:#181818;stroke-width:0.5;stroke-dasharray:5.0,5.0;" x1="22" x2="22" y1="82.6094" y2="480.3125"/><line style="stroke:#181818;stroke-width:0.5;stroke-dasharray:5.0,5.0;" x1="191.5" x2="191.5" y1="82.6094" y2="480.3125"/><line style="stroke:#181818;stroke-width:0.5;stroke-dasharray:5.0,5.0;" x1="362.5" x2="362.5" y1="82.6094" y2="480.3125"/><line style="stroke:#181818;stroke-width:0.5;stroke-dasharray:5.0,5.0;" x1="507" x2="507" y1="82.6094" y2="480.3125"/><line style="stroke:#181818;stroke-width:0.5;stroke-dasharray:5.0,5.0;" x1="677" x2="677" y1="82.6094" y2="480.3125"/><line style="stroke:#181818;stroke-width:0.5;stroke-dasharray:5.0,5.0;" x1="841.5" x2="841.5" y1="82.6094" y2="480.3125"/><text fill="#000000" font-family="sans-serif" font-size="14" lengthAdjust="spacing" textLength="29" x="5" y="79.5332">User</text><ellipse cx="22.5" cy="13.5" fill="#E2E2F0" rx="8" ry="8" style="stroke:#181818;stroke-width:0.5;"/><path d="M22.5,21.5 L22.5,48.5 M9.5,29.5 L35.5,29.5 M22.5,48.5 L9.5,63.5 M22.5,48.5 L35.5,63.5 " fill="none" style="stroke:#181818;stroke-width:0.5;"/><text fill="#000000" font-family="sans-serif" font-size="14" lengthAdjust="spacing" textLength="29" x="5" y="493.8457">User</text><ellipse cx="22.5" cy="505.4219" fill="#E2E2F0" rx="8" ry="8" style="stroke:#181818;stroke-width:0.5;"/><path d="M22.5,513.4219 L22.5,540.4219 M9.5,521.4219 L35.5,521.4219 M22.5,540.4219 L9.5,555.4219 M22.5,540.4219 L35.5,555.4219 " fill="none" style="stroke:#181818;stroke-width:0.5;"/><rect fill="#E2E2F0" height="31.6094" rx="2.5" ry="2.5" style="stroke:#181818;stroke-width:0.5;" width="26" x="178.5" y="50"/><text fill="#000000" font-family="sans-serif" font-size="14" lengthAdjust="spacing" textLength="12" x="185.5" y="71.5332">UI</text><rect fill="#E2E2F0" height="31.6094" rx="2.5" ry="2.5" style="stroke:#181818;stroke-width:0.5;" width="26" x="178.5" y="479.3125"/><text fill="#000000" font-family="sans-serif" font-size="14" lengthAdjust="spacing" textLength="12" x="185.5" y="500.8457">UI</text><rect fill="#E2E2F0" height="31.6094" rx="2.5" ry="2.5" style="stroke:#181818;stroke-width:0.5;" width="76" x="324.5" y="50"/><text fill="#000000" font-family="sans-serif" font-size="14" lengthAdjust="spacing" textLength="62" x="331.5" y="71.5332">Controller</text><rect fill="#E2E2F0" height="31.6094" rx="2.5" ry="2.5" style="stroke:#181818;stroke-width:0.5;" width="76" x="324.5" y="479.3125"/><text fill="#000000" font-family="sans-serif" font-size="14" lengthAdjust="spacing" textLength="62" x="331.5" y="500.8457">Controller</text><rect fill="#E2E2F0" height="31.6094" rx="2.5" ry="2.5" style="stroke:#181818;stroke-width:0.5;" width="61" x="477" y="50"/><text fill="#000000" font-family="sans-serif" font-size="14" lengthAdjust="spacing" textLength="47" x="484" y="71.5332">Service</text><rect fill="#E2E2F0" height="31.6094" rx="2.5" ry="2.5" style="stroke:#181818;stroke-width:0.5;" width="61" x="477" y="479.3125"/><text fill="#000000" font-family="sans-serif" font-size="14" lengthAdjust="spacing" textLength="47" x="484" y="500.8457">Service</text><rect fill="#E2E2F0" height="31.6094" rx="2.5" ry="2.5" style="stroke:#181818;stroke-width:0.5;" width="127" x="614" y="50"/><text fill="#000000" font-family="sans-serif" font-size="14" lengthAdjust="spacing" textLength="113" x="621" y="71.5332">CommandHandler</text><rect fill="#E2E2F0" height="31.6094" rx="2.5" ry="2.5" style="stroke:#181818;stroke-width:0.5;" width="127" x="614" y="479.3125"/><text fill="#000000" font-family="sans-serif" font-size="14" lengthAdjust="spacing" textLength="113" x="621" y="500.8457">CommandHandler</text><rect fill="#E2E2F0" height="31.6094" rx="2.5" ry="2.5" style="stroke:#181818;stroke-width:0.5;" width="60" x="811.5" y="50"/><text fill="#000000" font-family="sans-serif" font-size="14" lengthAdjust="spacing" textLength="46" x="818.5" y="71.5332">Worker</text><rect fill="#E2E2F0" height="31.6094" rx="2.5" ry="2.5" style="stroke:#181818;stroke-width:0.5;" width="60" x="811.5" y="479.3125"/><text fill="#000000" font-family="sans-serif" font-size="14" lengthAdjust="spacing" textLength="46" x="818.5" y="500.8457">Worker</text><polygon fill="#181818" points="179.5,110.9609,189.5,114.9609,179.5,118.9609,183.5,114.9609" style="stroke:#181818;stroke-width:1.0;"/><line style="stroke:#181818;stroke-width:1.0;" x1="22.5" x2="185.5" y1="114.9609" y2="114.9609"/><text fill="#000000" font-family="sans-serif" font-size="13" lengthAdjust="spacing" textLength="145" x="29.5" y="110.1045">Inputs transaction details</text><polygon fill="#181818" points="350.5,141.3125,360.5,145.3125,350.5,149.3125,354.5,145.3125" style="stroke:#181818;stroke-width:1.0;"/><line style="stroke:#181818;stroke-width:1.0;" x1="191.5" x2="356.5" y1="145.3125" y2="145.3125"/><text fill="#000000" font-family="sans-serif" font-size="13" lengthAdjust="spacing" textLength="147" x="198.5" y="140.4561">Sends transaction details</text><line style="stroke:#181818;stroke-width:1.0;" x1="362.5" x2="404.5" y1="175.6641" y2="175.6641"/><line style="stroke:#181818;stroke-width:1.0;" x1="404.5" x2="404.5" y1="175.6641" y2="188.6641"/><line style="stroke:#181818;stroke-width:1.0;" x1="363.5" x2="404.5" y1="188.6641" y2="188.6641"/><polygon fill="#181818" points="373.5,184.6641,363.5,188.6641,373.5,192.6641,369.5,188.6641" style="stroke:#181818;stroke-width:1.0;"/><text fill="#000000" font-family="sans-serif" font-size="13" lengthAdjust="spacing" textLength="76" x="369.5" y="170.8076">Validate auth</text><polygon fill="#181818" points="495.5,215.0156,505.5,219.0156,495.5,223.0156,499.5,219.0156" style="stroke:#181818;stroke-width:1.0;"/><line style="stroke:#181818;stroke-width:1.0;" x1="362.5" x2="501.5" y1="219.0156" y2="219.0156"/><text fill="#000000" font-family="sans-serif" font-size="13" lengthAdjust="spacing" textLength="121" x="369.5" y="214.1592">Validates information</text><polygon fill="#181818" points="665.5,245.3672,675.5,249.3672,665.5,253.3672,669.5,249.3672" style="stroke:#181818;stroke-width:1.0;"/><line style="stroke:#181818;stroke-width:1.0;" x1="507.5" x2="671.5" y1="249.3672" y2="249.3672"/><text fill="#000000" font-family="sans-serif" font-size="13" lengthAdjust="spacing" textLength="146" x="514.5" y="244.5107">Dispatch new transaction</text><path d="M314.5,264.3672 L375.5,264.3672 L375.5,272.7188 L365.5,282.7188 L314.5,282.7188 L314.5,264.3672 " fill="#EEEEEE" style="stroke:#000000;stroke-width:1.5;"/><rect fill="none" height="138.2422" style="stroke:#000000;stroke-width:1.5;" width="684" x="314.5" y="264.3672"/><text fill="#000000" font-family="sans-serif" font-size="13" font-weight="bold" lengthAdjust="spacing" textLength="16" x="329.5" y="278.8623">alt</text><text fill="#000000" font-family="sans-serif" font-size="11" font-weight="bold" lengthAdjust="spacing" textLength="98" x="390.5" y="277.7861">[Type is Expense]</text><polygon fill="#181818" points="829.5,301.0703,839.5,305.0703,829.5,309.0703,833.5,305.0703" style="stroke:#181818;stroke-width:1.0;"/><line style="stroke:#181818;stroke-width:1.0;" x1="677.5" x2="835.5" y1="305.0703" y2="305.0703"/><text fill="#000000" font-family="sans-serif" font-size="13" lengthAdjust="spacing" textLength="140" x="684.5" y="300.2139">Send transaction details</text><line style="stroke:#181818;stroke-width:1.0;" x1="841.5" x2="883.5" y1="335.4219" y2="335.4219"/><line style="stroke:#181818;stroke-width:1.0;" x1="883.5" x2="883.5" y1="335.4219" y2="348.4219"/><line style="stroke:#181818;stroke-width:1.0;" x1="842.5" x2="883.5" y1="348.4219" y2="348.4219"/><polygon fill="#181818" points="852.5,344.4219,842.5,348.4219,852.5,352.4219,848.5,348.4219" style="stroke:#181818;stroke-width:1.0;"/><text fill="#000000" font-family="sans-serif" font-size="13" lengthAdjust="spacing" textLength="138" x="848.5" y="330.5654">Process the transaction</text><line style="stroke:#000000;stroke-width:1.0;stroke-dasharray:2.0,2.0;" x1="314.5" x2="998.5" y1="357.4219" y2="357.4219"/><text fill="#000000" font-family="sans-serif" font-size="11" font-weight="bold" lengthAdjust="spacing" textLength="119" x="319.5" y="368.8408">[Type is not Expense]</text><polygon fill="#181818" points="373.5,390.6094,363.5,394.6094,373.5,398.6094,369.5,394.6094" style="stroke:#181818;stroke-width:1.0;"/><line style="stroke:#181818;stroke-width:1.0;" x1="367.5" x2="676.5" y1="394.6094" y2="394.6094"/><text fill="#000000" font-family="sans-serif" font-size="13" lengthAdjust="spacing" textLength="95" x="379.5" y="389.7529">Return response</text><polygon fill="#181818" points="202.5,427.9609,192.5,431.9609,202.5,435.9609,198.5,431.9609" style="stroke:#181818;stroke-width:1.0;"/><line style="stroke:#181818;stroke-width:1.0;" x1="196.5" x2="361.5" y1="431.9609" y2="431.9609"/><text fill="#000000" font-family="sans-serif" font-size="13" lengthAdjust="spacing" textLength="135" x="208.5" y="427.1045">Respond to the request</text><polygon fill="#181818" points="33.5,458.3125,23.5,462.3125,33.5,466.3125,29.5,462.3125" style="stroke:#181818;stroke-width:1.0;"/><line style="stroke:#181818;stroke-width:1.0;" x1="27.5" x2="190.5" y1="462.3125" y2="462.3125"/><text fill="#000000" font-family="sans-serif" font-size="13" lengthAdjust="spacing" textLength="101" x="39.5" y="457.4561">Display the result</text><!--SRC=[XP51JiGm34NtFOKlm0MwO0D8T8S62cihDMf4wWJR1URs9DEAjj58HCeYyRE__OtEea2l94r2CUzyGZRekyFpBh993A6Ydac-lACAdIRauJ7V6d-Byf6_cg86DxTPf8MEqsmA9iYApdna6CZG1stwha2RT9lrUBZERbITyuh13sW4EDjOSMl_6wJW-JtAXALuiuQNYlkfMhZtcj3S24pV-uOQ30OlvqJW5Hv-4h5I0_aS2vIIYnlBK5TdAcaBjE7GmfD4Hvfj6EcWJ47fJvgZ_IE_z-X4DWk3aAPOCd97bLDbLQTBEFSQBzf2dpEfhMigErri2NXUupe7-mK0]--></g></svg>